HIERARCHY
ROOT Hips
{
	OFFSET -0.001795 -0.223333 0.028219
	CHANNELS 6 Xposition Yposition Zposition Zrotation Yrotation Xrotation 
	JOINT LeftUpLeg
	{
		OFFSET 0.069520 -0.091406 -0.006815
		CHANNELS 3 Zrotation Yrotation Xrotation
		JOINT LeftLeg
		{
			OFFSET 0.034277 -0.375199 -0.004496
			CHANNELS 3 Zrotation Yrotation Xrotation
			JOINT LeftFoot
			{
				OFFSET -0.013596 -0.397961 -0.043693
				CHANNELS 3 Zrotation Yrotation Xrotation
				JOINT LeftToe
				{
					OFFSET 0.026358 -0.055791 0.119288
					CHANNELS 3 Zrotation Yrotation Xrotation
					End Site
					{
						OFFSET 0.000000 0.000000 0.000000
					}
				}
			}
		}
	}
	JOINT RightUpLeg
	{
		OFFSET -0.067670 -0.090522 -0.004320
		CHANNELS 3 Zrotation Yrotation Xrotation
		JOINT RightLeg
		{
			OFFSET -0.038290 -0.382569 -0.008850
			CHANNELS 3 Zrotation Yrotation Xrotation
			JOINT RightFoot
			{
				OFFSET 0.015774 -0.398415 -0.042312
				CHANNELS 3 Zrotation Yrotation Xrotation
				JOINT RightToe
				{
					OFFSET -0.025372 -0.048144 0.123348
					CHANNELS 3 Zrotation Yrotation Xrotation
					End Site
					{
						OFFSET 0.000000 0.000000 0.000000
					}
				}
			}
		}
	}
	JOINT Spine
	{
		OFFSET -0.002533 0.108963 -0.026696
		CHANNELS 3 Zrotation Yrotation Xrotation
		JOINT Spine1
		{
			OFFSET 0.005487 0.135180 0.001092
			CHANNELS 3 Zrotation Yrotation Xrotation
			JOINT Spine2
			{
				OFFSET 0.001457 0.052922 0.025425
				CHANNELS 3 Zrotation Yrotation Xrotation
				JOINT Neck
				{
					OFFSET -0.002778 0.213870 -0.042857
					CHANNELS 3 Zrotation Yrotation Xrotation
					JOINT Head
					{
						OFFSET 0.005152 0.064970 0.051349
						CHANNELS 3 Zrotation Yrotation Xrotation
						End Site
						{
							OFFSET 0.000000 0.000000 0.000000
						}
					}
				}
				JOINT LeftShoulder
				{
					OFFSET 0.078845 0.121749 -0.034090
					CHANNELS 3 Zrotation Yrotation Xrotation
					JOINT LeftArm
					{
						OFFSET 0.090977 0.030469 -0.008868
						CHANNELS 3 Zrotation Yrotation Xrotation
						JOINT LeftForeArm
						{
							OFFSET 0.259612 -0.012772 -0.027456
							CHANNELS 3 Zrotation Yrotation Xrotation
							JOINT LeftHand
							{
								OFFSET 0.249234 0.008986 -0.001171
								CHANNELS 3 Zrotation Yrotation Xrotation
								End Site
								{
									OFFSET 0.000000 0.000000 0.000000
								}
							}
						}
					}
				}
				JOINT RightShoulder
				{
					OFFSET -0.081759 0.118833 -0.038615
					CHANNELS 3 Zrotation Yrotation Xrotation
					JOINT RightArm
					{
						OFFSET -0.096012 0.032551 -0.009143
						CHANNELS 3 Zrotation Yrotation Xrotation
						JOINT RightForeArm
						{
							OFFSET -0.253742 -0.013329 -0.021401
							CHANNELS 3 Zrotation Yrotation Xrotation
							JOINT RightHand
							{
								OFFSET -0.255298 0.007772 -0.005559
								CHANNELS 3 Zrotation Yrotation Xrotation
								End Site
								{
									OFFSET 0.000000 0.000000 0.000000
								}
							}
						}
					}
				}
			}
		}
	}
}
MOTION
Frames: 16
Frame Time: 0.050000
0.000000 0.945717 0.000000 0.451856 -11.651040 1.509458 5.159070 -0.131930 -4.104155 -2.933325 0.408584 -2.154248 -6.978821 -11.445109 6.118228 0.000000 0.000000 0.000000 -6.750249 0.489862 -3.267042 3.654008 -0.201410 4.999667 -24.459269 -39.838038 26.624606 0.000000 0.000000 0.000000 -0.027323 -0.384593 15.105041 6.003281 -1.497457 -18.914159 3.255963 8.141412 25.285762 1.690434 0.333385 -18.420042 0.000000 0.000000 0.000000 -22.990740 -5.865420 1.802747 -47.711350 -14.629929 -2.103186 -23.819676 -42.685181 11.798940 0.000000 0.000000 0.000000 17.038540 16.049578 7.634704 46.633004 22.356724 1.768383 -8.614402 32.975076 -0.862882 0.000000 0.000000 0.000000 
-0.002186 0.945336 0.000254 0.271528 -11.921394 2.203648 5.572122 -0.134957 -4.613979 -3.069801 0.426875 -2.371520 -6.825943 -11.183296 6.086114 0.000000 0.000000 0.000000 -5.628557 0.482119 -3.685674 2.882014 -0.119634 4.563671 -24.980048 -40.534980 26.055790 0.000000 0.000000 0.000000 0.495319 -0.461252 15.301193 6.828404 -1.658821 -19.454722 3.752219 8.560402 25.192599 2.587697 -0.378722 -16.718469 0.000000 0.000000 0.000000 -24.922857 -4.512684 0.814334 -46.807877 -13.468647 -2.499120 -27.954756 -41.949874 13.241405 0.000000 0.000000 0.000000 15.511728 17.116424 8.047859 47.002056 23.876865 2.453755 -11.512965 32.080083 -1.588648 0.000000 0.000000 0.000000 
-0.004134 0.944937 0.000436 1.203444 -11.004944 2.596710 4.981376 -0.230156 -5.607475 -3.549989 0.475997 -1.948999 -7.279451 -11.769272 6.492063 0.000000 0.000000 0.000000 -6.564922 0.535744 -4.356290 3.345452 -0.170563 5.029420 -26.122490 -41.661491 26.503194 0.000000 0.000000 0.000000 0.414280 -0.456529 14.837374 7.323721 -1.855260 -18.554732 3.618413 8.661346 24.506307 2.469643 -0.217012 -16.536833 0.000000 0.000000 0.000000 -25.222042 -5.020549 0.835004 -46.940920 -13.398396 -2.383986 -28.937976 -42.122233 13.586040 0.000000 0.000000 0.000000 15.903785 18.056779 8.720668 44.288569 26.839064 3.306907 -12.374019 29.153600 -1.670150 0.000000 0.000000 0.000000 
-0.005948 0.944749 0.000608 1.672300 -10.972633 2.863194 4.964460 -0.262002 -6.229860 -4.192280 0.555399 -1.501425 -7.318629 -11.752196 6.644040 0.000000 0.000000 0.000000 -6.847008 0.561876 -4.723995 3.158624 -0.132681 5.639290 -25.291151 -41.269721 24.968276 0.000000 0.000000 0.000000 -0.041882 -0.390052 15.268100 8.598078 -2.267628 -17.862373 3.797156 9.822995 23.666673 3.128474 -0.607521 -15.337611 0.000000 0.000000 0.000000 -25.860333 -4.530204 -0.011125 -46.206448 -12.957838 -2.303196 -31.860551 -43.829725 15.234586 0.000000 0.000000 0.000000 16.071930 19.414984 9.714836 42.768571 28.373643 3.718859 -14.459816 27.685124 -2.023771 0.000000 0.000000 0.000000 
-0.007804 0.944660 0.000981 2.334047 -10.522229 2.924054 4.097202 -0.353259 -6.788659 -3.708536 0.492036 -0.906945 -7.477536 -12.014573 6.670780 0.000000 0.000000 0.000000 -7.345745 0.572301 -4.816813 2.915715 -0.110265 5.532147 -25.886402 -41.699945 25.709961 0.000000 0.000000 0.000000 0.603441 -0.497728 15.568571 8.123755 -2.206545 -17.107074 4.237751 10.275008 23.266398 3.569918 -0.707786 -16.308664 0.000000 0.000000 0.000000 -25.318806 -5.079974 0.087199 -46.789878 -12.542364 -2.346775 -33.449481 -45.101453 16.304164 0.000000 0.000000 0.000000 16.997993 19.536125 10.103280 41.089176 30.884053 4.351390 -15.725543 25.583370 -2.100800 0.000000 0.000000 0.000000 
-0.009797 0.944421 0.001615 2.705381 -9.804371 3.387567 3.887074 -0.414813 -7.497476 -3.806526 0.498365 -0.747316 -7.817766 -12.470946 6.917978 0.000000 0.000000 0.000000 -7.592889 0.580554 -5.009609 2.882258 -0.115472 5.462644 -26.042800 -41.942318 25.616011 0.000000 0.000000 0.000000 0.735824 -0.531339 15.485700 8.463386 -2.274722 -17.169375 4.656605 11.080405 23.351744 3.923506 -0.809541 -16.085040 0.000000 0.000000 0.000000 -25.835959 -5.608464 -0.065954 -46.334266 -12.661848 -2.167316 -35.526300 -45.324575 17.142757 0.000000 0.000000 0.000000 17.435583 19.868382 10.678818 40.141801 32.079846 4.539266 -16.902007 24.649513 -2.203092 0.000000 0.000000 0.000000 
-0.011733 0.944360 0.002529 2.810759 -9.602700 3.531114 3.654564 -0.456027 -7.931739 -3.386460 0.442830 -0.195289 -7.834678 -12.597542 6.735417 0.000000 0.000000 0.000000 -7.583896 0.589833 -5.299705 2.738592 -0.082258 6.040180 -25.813847 -41.796641 25.372009 0.000000 0.000000 0.000000 1.287574 -0.622292 15.504104 8.572256 -2.378080 -16.448288 4.765229 11.653824 23.088996 4.305924 -0.939069 -16.367922 0.000000 0.000000 0.000000 -25.705552 -5.853355 -0.163524 -46.139600 -11.806464 -2.383417 -36.442180 -46.054340 17.731110 0.000000 0.000000 0.000000 18.110872 20.277173 11.208187 39.667614 32.948964 4.741426 -17.345437 23.534875 -2.158593 0.000000 0.000000 0.000000 
-0.013499 0.943978 0.003635 2.995875 -9.006487 3.741260 3.515662 -0.500706 -8.448321 -3.297273 0.426202 0.272133 -8.061208 -13.022006 6.681054 0.000000 0.000000 0.000000 -7.585786 0.597026 -5.688443 2.915086 -0.093130 6.734314 -26.520350 -42.542760 25.540268 0.000000 0.000000 0.000000 1.685398 -0.700952 15.625461 8.345908 -2.301493 -16.436735 5.394116 12.005676 23.454262 4.856427 -1.273161 -16.062320 0.000000 0.000000 0.000000 -25.880402 -6.609929 0.049394 -45.706628 -11.451263 -2.448634 -36.909171 -46.828677 18.167245 0.000000 0.000000 0.000000 18.543223 20.169224 11.434362 39.709634 33.222989 4.784847 -16.804596 22.717236 -1.966275 0.000000 0.000000 0.000000 
-0.014780 0.943971 0.004563 3.040746 -8.771185 3.861080 3.453889 -0.528073 -8.830806 -3.135665 0.402184 0.776981 -8.120127 -13.186517 6.569316 0.000000 0.000000 0.000000 -7.553961 0.609802 -6.099969 2.858735 -0.064368 7.537878 -26.490867 -42.538461 25.540977 0.000000 0.000000 0.000000 2.005774 -0.765415 15.889309 8.424393 -2.383646 -15.817348 5.530474 12.500273 23.193867 5.038817 -1.299719 -16.111021 0.000000 0.000000 0.000000 -25.556905 -6.743761 -0.081178 -45.667728 -11.288720 -2.421609 -36.749237 -47.243515 18.134316 0.000000 0.000000 0.000000 18.834857 20.487847 11.833422 40.124125 32.890538 4.776535 -16.834951 22.191138 -1.909989 0.000000 0.000000 0.000000 
-0.015663 0.943894 0.005151 3.179609 -8.732383 4.050481 3.263431 -0.580724 -9.530975 -2.961713 0.376761 1.674394 -8.054833 -13.188025 6.354748 0.000000 0.000000 0.000000 -7.694448 0.633825 -6.651907 2.911473 -0.042371 8.532118 -26.005385 -42.287683 24.786052 0.000000 0.000000 0.000000 2.443006 -0.850072 16.270416 8.149178 -2.314719 -15.649514 5.943567 12.902178 23.477440 5.382255 -1.425023 -16.471044 0.000000 0.000000 0.000000 -25.357510 -7.163595 0.047895 -45.207419 -11.198486 -2.408863 -36.888353 -48.090093 18.477510 0.000000 0.000000 0.000000 18.450279 20.437700 11.824311 40.798179 32.768820 4.879298 -16.753269 21.820000 -1.843361 0.000000 0.000000 0.000000 
-0.016254 0.943936 0.005196 3.201026 -8.806664 4.284516 3.308182 -0.610929 -10.201812 -2.999199 0.383219 2.422379 -7.969851 -13.099873 6.233092 0.000000 0.000000 0.000000 -7.894540 0.659452 -7.187012 3.167671 -0.061927 9.189858 -25.561318 -41.983934 24.291636 0.000000 0.000000 0.000000 2.599777 -0.896661 16.854499 7.970379 -2.301904 -15.193523 6.247647 13.346844 23.447373 5.496849 -1.444365 -16.450696 0.000000 0.000000 0.000000 -24.898526 -7.375734 0.074368 -44.926666 -11.244833 -2.345492 -37.383284 -49.058529 19.042594 0.000000 0.000000 0.000000 17.982281 20.683449 11.944553 41.343152 32.834397 5.060200 -17.150253 21.448172 -1.854606 0.000000 0.000000 0.000000 
-0.016879 0.944065 0.004768 3.262872 -8.834694 4.435979 3.192448 -0.646374 -10.699738 -2.824893 0.357132 2.952807 -7.924071 -13.038887 6.188789 0.000000 0.000000 0.000000 -8.009213 0.679912 -7.667007 3.218525 -0.053309 9.729032 -25.381788 -41.826802 24.223231 0.000000 0.000000 0.000000 2.706492 -0.950679 17.864387 8.023987 -2.319250 -15.156633 6.583409 13.548940 23.830537 5.647965 -1.417650 -17.116343 0.000000 0.000000 0.000000 -25.365856 -7.715658 0.156609 -44.171018 -11.073974 -2.355231 -39.178617 -50.532593 20.575076 0.000000 0.000000 0.000000 17.266119 20.750844 11.852597 41.443539 33.328191 5.282984 -18.209954 21.249217 -1.977987 0.000000 0.000000 0.000000 
-0.017409 0.944378 0.003862 3.226977 -9.238712 4.817941 3.173169 -0.669999 -11.224750 -2.633368 0.330369 3.141989 -7.723339 -12.667525 6.205638 0.000000 0.000000 0.000000 -8.070283 0.717777 -8.285047 3.287733 -0.059213 9.653190 -25.326130 -41.693608 24.476402 0.000000 0.000000 0.000000 2.722011 -0.975798 18.765442 8.192230 -2.387724 -14.971211 6.668658 13.987276 23.977871 5.758306 -1.424280 -17.290358 0.000000 0.000000 0.000000 -25.693028 -7.884708 0.127403 -43.330777 -10.757991 -2.385380 -41.709445 -51.963337 22.530302 0.000000 0.000000 0.000000 16.690601 21.035556 11.922670 41.370855 33.847457 5.490313 -19.745129 21.191844 -2.181706 0.000000 0.000000 0.000000 
-0.017815 0.944408 0.002626 3.241053 -9.702606 5.057832 3.169193 -0.698884 -11.966818 -2.568764 0.325016 3.944174 -7.459849 -12.271392 6.057326 0.000000 0.000000 0.000000 -8.225178 0.752481 -8.865353 3.282106 -0.036165 10.071108 -24.476877 -40.997630 23.725913 0.000000 0.000000 0.000000 2.733363 -1.004524 20.080454 8.103103 -2.376163 -14.849632 6.983344 14.310697 24.154475 6.063434 -1.518711 -17.885227 0.000000 0.000000 0.000000 -26.050176 -8.083967 0.162105 -42.500568 -10.625978 -2.363699 -43.982561 -53.426212 24.489217 0.000000 0.000000 0.000000 16.067981 21.007901 11.778104 40.648914 34.891049 5.731992 -21.149188 20.879541 -2.329962 0.000000 0.000000 0.000000 
-0.017932 0.944656 0.001130 3.311401 -9.990096 5.363242 3.110996 -0.726097 -12.503398 -2.540893 0.323453 4.162190 -7.338849 -11.987781 6.175640 0.000000 0.000000 0.000000 -8.479441 0.781128 -9.374927 3.344521 -0.044464 9.967245 -24.214659 -40.678804 23.867492 0.000000 0.000000 0.000000 2.715117 -1.022467 21.238620 8.147144 -2.364800 -15.073239 7.106542 14.476870 24.607694 6.175510 -1.527915 -18.253212 0.000000 0.000000 0.000000 -26.296122 -8.122343 0.143618 -42.409462 -11.039231 -2.242757 -46.579617 -54.222171 26.418895 0.000000 0.000000 0.000000 15.526124 21.309117 11.818634 39.133751 35.912886 5.729639 -23.060412 20.388986 -2.523382 0.000000 0.000000 0.000000 
-0.017738 0.944487 -0.000331 3.341252 -10.341570 5.862154 3.184557 -0.757275 -13.558364 -2.684161 0.355367 4.937276 -7.139973 -11.657217 6.115758 0.000000 0.000000 0.000000 -8.538664 0.830044 -10.227629 3.491920 -0.048708 10.362154 -23.974022 -40.629682 23.221331 0.000000 0.000000 0.000000 2.690773 -1.026668 22.042813 8.046326 -2.353595 -14.835297 7.214689 14.746602 24.663526 6.185354 -1.566552 -17.901841 0.000000 0.000000 0.000000 -27.087313 -8.401744 0.173127 -42.077917 -11.762387 -1.946026 -48.338780 -54.775390 27.773463 0.000000 0.000000 0.000000 14.960763 21.568118 11.851152 37.210057 36.554620 5.485039 -24.757693 20.817830 -2.835312 0.000000 0.000000 0.000000 
